<?xml version="1.0" standalone="no"?>
<!DOCTYPE svg PUBLIC "-//W3C//DTD SVG 20010904//EN"
 "http://www.w3.org/TR/2001/REC-SVG-20010904/DTD/svg10.dtd">
<svg version="1.0" xmlns="http://www.w3.org/2000/svg"
 width="775.000000pt" height="395.000000pt" viewBox="0 0 775.000000 395.000000"
 preserveAspectRatio="xMidYMid meet">

<g transform="translate(0.000000,395.000000) scale(0.100000,-0.100000)"
fill="#ef394e" stroke="none">
<path d="M2659 3923 c-15 -4 -15 -10 -2 -71 15 -71 12 -92 -11 -92 -8 0 -38
-5 -66 -11 -40 -8 -50 -15 -50 -31 0 -18 4 -19 53 -12 104 15 100 18 114 -60
7 -38 14 -71 16 -73 2 -2 12 0 22 3 13 6 16 14 11 43 -3 20 -9 53 -12 73 -7
42 -9 41 79 58 47 9 57 15 57 32 0 18 -4 20 -37 14 -21 -3 -56 -9 -78 -12
l-41 -6 -13 76 c-7 42 -15 75 -19 75 -4 -1 -14 -3 -23 -6z"/>
<path d="M4400 3450 c0 -99 2 -180 5 -180 10 0 307 151 304 154 -2 2 -73 49
-156 105 l-153 101 0 -180z m145 50 c58 -39 105 -73 105 -75 0 -5 -215 -115
-225 -115 -3 0 -5 59 -5 130 0 83 4 130 10 130 6 0 58 -32 115 -70z"/>
<path d="M4950 3549 c-39 -15 -60 -49 -60 -97 0 -90 99 -135 168 -77 53 44 47
130 -11 165 -35 22 -59 24 -97 9z m90 -49 c54 -54 -11 -141 -79 -105 -46 23
-53 57 -20 99 25 32 70 35 99 6z"/>
<path d="M3309 3371 c-57 -57 -31 -158 45 -177 36 -9 73 3 102 31 18 19 24 35
24 70 0 64 -39 105 -100 105 -33 0 -48 -6 -71 -29z m121 -31 c41 -41 10 -110
-50 -110 -35 0 -70 34 -70 67 0 32 34 63 70 63 17 0 39 -9 50 -20z"/>
<path d="M3780 3001 c-244 -35 -451 -184 -561 -406 -36 -73 -56 -146 -75 -277
l-5 -38 -97 0 c-115 0 -167 -12 -188 -45 -12 -18 -23 -98 -41 -300 -24 -272
-24 -275 -5 -295 15 -16 29 -21 61 -18 55 4 57 21 4 32 -52 12 -51 -6 -23 296
11 118 20 223 20 233 0 9 9 26 20 37 18 18 33 20 135 20 141 0 149 5 159 104
16 159 86 305 202 420 126 127 277 194 454 203 126 6 219 -14 340 -73 79 -39
109 -61 181 -133 122 -123 181 -248 204 -434 10 -78 27 -87 166 -87 83 0 120
-4 127 -13 11 -13 183 -1865 175 -1880 -6 -9 -2323 -9 -2323 1 0 4 9 121 22
260 l22 254 37 -6 c25 -4 40 -2 48 8 15 18 8 22 -50 30 -33 5 -49 3 -57 -7 -7
-7 -21 -114 -32 -238 -11 -123 -22 -243 -25 -267 -4 -33 0 -47 15 -62 20 -20
37 -20 1183 -20 1157 0 1164 0 1182 20 18 20 16 46 -67 967 l-85 946 -27 24
c-25 21 -36 23 -140 23 -123 0 -136 5 -136 55 0 109 -79 301 -167 407 -158
189 -417 292 -653 259z"/>
<path d="M1550 2815 l0 -75 -75 0 c-73 0 -75 -1 -75 -25 0 -24 2 -25 75 -25
l75 0 0 -75 c0 -73 1 -75 25 -75 24 0 25 2 25 75 l0 75 75 0 c73 0 75 1 75 25
0 24 -2 25 -75 25 l-75 0 0 75 c0 73 -1 75 -25 75 -24 0 -25 -2 -25 -75z"/>
<path d="M3720 2724 c-139 -36 -262 -122 -347 -242 -83 -116 -97 -203 -37
-231 18 -8 178 -11 545 -11 l520 0 24 25 c33 33 32 67 -8 143 -80 157 -224
273 -393 316 -77 20 -229 20 -304 0z m265 -29 c111 -23 209 -77 290 -159 78
-79 138 -180 133 -224 l-3 -27 -529 0 c-607 0 -569 -6 -526 86 76 164 229 286
405 324 80 18 145 18 230 0z"/>
<path d="M2218 2603 l-116 -4 95 -154 c52 -85 98 -155 102 -155 4 0 41 72 83
160 l76 160 -61 -2 c-34 -1 -114 -4 -179 -5z m192 -27 c0 -17 -114 -236 -119
-230 -28 33 -131 215 -126 224 6 9 245 16 245 6z"/>
<path d="M5936 2502 c-2 -4 -13 -37 -25 -74 l-22 -66 -69 23 c-71 24 -80 23
-80 -5 0 -12 18 -22 61 -35 34 -10 63 -24 65 -29 2 -6 -5 -40 -16 -76 -15 -49
-17 -66 -7 -72 22 -14 32 -2 51 65 10 37 24 67 30 67 6 0 38 -9 71 -19 33 -11
64 -15 69 -11 16 16 -2 36 -45 49 -23 7 -53 17 -65 22 l-23 8 24 72 c14 40 25
73 25 75 0 6 -41 11 -44 6z"/>
<path d="M1186 2080 c-42 -13 -95 -68 -107 -112 -19 -71 17 -150 83 -184 40
-21 117 -18 156 6 46 28 72 76 72 133 0 79 -42 136 -115 156 -46 12 -49 12
-89 1z m112 -50 c68 -41 78 -133 21 -189 -56 -57 -148 -47 -189 21 -36 60 -18
131 43 168 41 25 83 25 125 0z"/>
<path d="M2660 1624 c-39 -17 -54 -35 -38 -45 12 -7 78 19 90 36 7 10 1 25
-10 25 -4 -1 -23 -8 -42 -16z"/>
<path d="M3013 1604 c-19 -8 -4 -31 33 -54 41 -24 54 -25 54 -6 0 13 -60 67
-71 65 -2 0 -9 -3 -16 -5z"/>
<path d="M2497 1492 c-36 -55 -20 -77 22 -31 32 35 41 69 17 69 -7 0 -25 -17
-39 -38z"/>
<path d="M3146 1454 c-6 -16 19 -74 38 -86 20 -13 26 7 14 45 -13 43 -42 66
-52 41z"/>
<path d="M2784 1416 c-21 -10 -36 -27 -47 -55 -19 -46 -22 -148 -7 -200 28
-100 142 -120 192 -35 47 81 27 247 -35 284 -37 23 -60 24 -103 6z m106 -48
c16 -26 20 -51 20 -118 0 -108 -21 -150 -74 -150 -63 0 -97 84 -81 200 9 66
36 100 81 100 28 0 38 -6 54 -32z"/>
<path d="M2429 1323 c-13 -35 -8 -68 11 -68 9 0 17 13 20 35 10 61 -11 84 -31
33z"/>
<path d="M3196 1258 c-21 -64 2 -131 24 -72 6 15 10 39 8 53 -3 27 -25 40 -32
19z"/>
<path d="M3507 1222 c-40 -44 -6 -106 54 -100 47 4 71 46 49 86 -20 35 -77 43
-103 14z"/>
<path d="M4246 1225 c-21 -22 -20 -68 2 -88 19 -18 59 -22 79 -9 22 14 32 57
19 83 -15 30 -75 39 -100 14z"/>
<path d="M2446 1144 c-6 -17 29 -94 43 -94 19 0 20 33 1 71 -22 42 -34 48 -44
23z"/>
<path d="M497 1092 c-22 -25 -22 -75 1 -95 52 -47 132 -18 132 47 0 19 -8 40
-18 49 -26 23 -94 22 -115 -1z"/>
<path d="M896 1094 c-23 -23 -20 -77 5 -100 20 -18 45 -19 473 -22 541 -4 790
4 811 25 8 8 15 30 15 48 0 69 37 65 -660 65 -558 0 -630 -2 -644 -16z"/>
<path d="M5603 1090 c-46 -19 -54 -98 -13 -120 12 -6 248 -10 637 -10 516 0
622 2 638 14 23 17 27 88 7 108 -10 10 -145 13 -630 15 -344 1 -627 -2 -639
-7z"/>
<path d="M7162 1084 c-28 -20 -31 -83 -4 -107 26 -24 87 -22 112 3 62 62 -35
155 -108 104z"/>
<path d="M85 1083 c-63 -6 -89 -65 -43 -97 34 -24 169 -22 191 2 20 22 22 65
5 79 -16 13 -99 21 -153 16z"/>
<path d="M3123 1045 c-27 -40 -29 -55 -9 -55 19 0 70 66 61 80 -12 19 -30 10
-52 -25z"/>
<path d="M7565 1063 c-34 -9 -45 -24 -45 -59 0 -48 21 -55 127 -46 l88 7 3 39
c2 21 0 42 -5 47 -10 10 -141 20 -168 12z"/>
<path d="M2560 977 c0 -18 56 -67 76 -67 26 0 14 25 -24 50 -49 33 -52 34 -52
17z"/>
<path d="M2973 924 c-38 -16 -47 -28 -30 -42 16 -14 72 10 87 37 9 18 8 21 -7
20 -10 0 -32 -7 -50 -15z"/>
<path d="M3818 906 c-86 -23 -118 -59 -94 -108 15 -29 55 -35 107 -14 77 31
199 16 269 -34 36 -26 86 -26 100 -1 22 42 12 69 -37 102 -91 63 -232 86 -345
55z"/>
<path d="M866 720 c-61 -19 -106 -83 -106 -150 0 -88 55 -150 141 -158 60 -6
100 10 138 54 67 75 42 196 -49 242 -46 23 -76 26 -124 12z m114 -46 c86 -51
76 -182 -17 -221 -96 -40 -199 65 -159 161 28 66 115 96 176 60z"/>
<path d="M1561 636 c-19 -23 -17 -77 4 -92 26 -20 168 -19 184 0 16 20 17 72
1 91 -17 21 -172 22 -189 1z"/>
<path d="M1956 634 c-9 -8 -16 -28 -16 -44 0 -60 1 -60 339 -60 286 0 309 1
324 18 24 26 22 79 -2 92 -12 6 -134 10 -325 10 -264 0 -307 -2 -320 -16z"/>
<path d="M5224 633 c-65 -5 -89 -28 -79 -73 5 -21 15 -34 33 -41 15 -6 146 -9
325 -7 282 3 299 4 313 22 20 28 17 60 -7 82 -19 17 -41 19 -277 20 -141 1
-280 0 -308 -3z"/>
<path d="M6045 634 c-28 -8 -45 -33 -45 -65 0 -42 32 -59 110 -59 81 0 110 17
110 64 0 19 -7 39 -15 46 -16 13 -126 22 -160 14z"/>
<path d="M652 118 c-20 -20 -15 -76 7 -88 25 -13 107 -13 132 0 22 12 27 68 7
88 -16 16 -130 16 -146 0z"/>
<path d="M1117 112 c-22 -24 -21 -55 1 -75 16 -15 53 -17 308 -17 246 0 293 2
312 16 27 18 29 55 4 77 -16 15 -53 17 -314 17 -273 0 -296 -1 -311 -18z"/>
<path d="M6998 113 c-14 -2 -32 -10 -38 -18 -19 -23 -8 -68 20 -83 30 -15 112
-11 135 8 18 15 20 64 3 78 -16 12 -84 21 -120 15z"/>
<path d="M6022 98 c-17 -17 -15 -63 5 -79 12 -11 78 -15 300 -17 246 -3 288
-1 309 13 26 17 33 62 12 83 -17 17 -609 17 -626 0z"/>
</g>
</svg>
