<?xml version="1.0" standalone="no"?>
<!DOCTYPE svg PUBLIC "-//W3C//DTD SVG 20010904//EN"
 "http://www.w3.org/TR/2001/REC-SVG-20010904/DTD/svg10.dtd">
<svg version="1.0" xmlns="http://www.w3.org/2000/svg"
 width="32.000000pt" height="32.000000pt" viewBox="0 0 32.000000 32.000000"
 preserveAspectRatio="xMidYMid meet">

<g transform="translate(0.000000,32.000000) scale(0.100000,-0.100000)"
fill="#ef4056" stroke="none">
<path d="M92 247 c-42 -34 -59 -54 -52 -61 5 -5 10 -35 10 -66 0 -31 5 -61 12
-68 16 -16 180 -16 196 0 7 7 12 37 12 68 0 31 5 61 11 67 8 8 8 13 0 17 -6 4
-11 18 -11 31 0 29 -16 41 -34 26 -11 -9 -21 -6 -44 14 -16 14 -31 25 -33 24
-2 0 -32 -23 -67 -52z m32 -62 c3 -10 19 -15 46 -15 41 0 47 -8 30 -41 -7 -12
-21 -19 -40 -19 -24 0 -30 6 -41 38 -6 20 -17 40 -23 44 -7 5 -5 8 5 8 9 0 19
-7 23 -15z"/>
</g>
</svg>
