<?xml version="1.0" encoding="utf-8"?>
<svg viewBox="4 5.3 40 36.65" xmlns="http://www.w3.org/2000/svg">
  <path d="M 24 41.95 L 21.95 40.1 C 18.417 36.867 15.5 34.075 13.2 31.725 C 10.9 29.375 9.067 27.275 7.7 25.425 C 6.333 23.575 5.375 21.9 4.825 20.4 C 4.275 18.9 4 17.383 4 15.85 C 4 12.85 5.008 10.342 7.025 8.325 C 9.042 6.308 11.533 5.3 14.5 5.3 C 16.4 5.3 18.158 5.75 19.775 6.65 C 21.392 7.55 22.8 8.85 24 10.55 C 25.4 8.75 26.883 7.425 28.45 6.575 C 30.017 5.725 31.7 5.3 33.5 5.3 C 36.467 5.3 38.958 6.308 40.975 8.325 C 42.992 10.342 44 12.85 44 15.85 C 44 17.383 43.725 18.9 43.175 20.4 C 42.625 21.9 41.667 23.575 40.3 25.425 C 38.933 27.275 37.1 29.375 34.8 31.725 C 32.5 34.075 29.583 36.867 26.05 40.1 L 24 41.95 Z M 24 38 C 27.367 34.9 23.557 31.376 25.74 29.159 C 27.923 26.942 23.202 17.982 24.485 16.315 C 25.768 14.648 28.748 21.267 29.265 19.967 C 29.782 18.667 29.476 20.053 29.476 18.753 C 29.476 16.553 32.112 21.416 30.712 19.999 C 29.312 18.582 26.169 38.062 23.969 38.062 C 22.269 38.062 25.538 36.984 24.071 38.034 C 22.604 39.084 24.974 35.924 24.074 37.824 L 22.75 14.3 C 21.883 12.433 27.822 19.285 26.355 18.218 C 24.888 17.151 27.204 28.488 25.504 28.488 C 23.304 28.488 25.353 35.669 24.046 38.107 C 22.739 40.545 7.01 13.761 7 15.85 C 6.994 17.15 26.536 13.303 27.053 14.62 C 27.57 15.937 18.16 18.476 19.443 20.159 C 20.726 21.842 20.605 19.842 22.805 22.042 C 25.005 24.242 20.667 34.933 24 38 Z M 24 23.15 Z" style="stroke-width: 6px; fill: rgb(239, 57, 78);"/>
</svg>