<?xml version="1.0" standalone="no"?>
<!DOCTYPE svg PUBLIC "-//W3C//DTD SVG 20010904//EN"
 "http://www.w3.org/TR/2001/REC-SVG-20010904/DTD/svg10.dtd">
<svg version="1.0" xmlns="http://www.w3.org/2000/svg"
 width="750.000000pt" height="450.000000pt" viewBox="0 0 750.000000 450.000000"
 preserveAspectRatio="xMidYMid meet">
<metadata>
Created by potrace 1.16, written by Peter Selinger 2001-2019
</metadata>
<g transform="translate(0.000000,450.000000) scale(0.100000,-0.100000)"
fill="#ef394e" stroke="none">
<path d="M3170 3105 l0 -245 135 0 135 0 0 110 0 110 185 0 185 0 0 135 0 135
-320 0 -320 0 0 -245z"/>
<path d="M3190 2555 l0 -65 70 0 70 0 0 65 0 65 -70 0 -70 0 0 -65z"/>
<path d="M4890 1727 c-29 -10 -62 -47 -184 -210 -138 -183 -149 -200 -140
-225 8 -22 15 -27 44 -27 34 0 40 7 166 174 72 96 138 178 147 182 8 5 22 7
29 4 8 -3 74 -86 148 -185 114 -152 139 -180 160 -180 32 0 50 17 50 47 0 28
-270 392 -303 409 -37 20 -81 24 -117 11z"/>
<path d="M1250 1691 c-15 -30 -13 -393 3 -414 11 -16 40 -18 367 -15 l355 3
32 24 c17 13 44 46 59 75 61 109 26 265 -71 322 l-42 24 -346 0 c-332 0 -347
-1 -357 -19z m698 -97 c12 -8 29 -28 37 -44 30 -58 12 -140 -37 -174 -19 -14
-66 -16 -315 -16 l-293 0 0 125 0 125 293 0 c249 0 296 -2 315 -16z"/>
<path d="M2210 1691 c-6 -12 -10 -97 -10 -206 0 -109 4 -194 10 -206 12 -22
59 -26 78 -7 17 17 17 409 0 426 -19 19 -66 15 -78 -7z"/>
<path d="M2520 1689 c-70 -43 -104 -110 -104 -204 0 -59 4 -79 29 -124 16 -29
45 -64 65 -77 l35 -24 318 0 c283 0 322 2 348 17 77 46 78 188 1 240 -24 16
-55 18 -250 21 -191 3 -227 1 -248 -13 -26 -17 -32 -53 -12 -73 9 -9 72 -12
221 -12 213 0 247 -5 247 -38 0 -40 -14 -42 -308 -42 l-284 0 -28 28 c-53 53
-49 158 7 201 25 20 38 21 348 21 302 0 324 1 346 19 20 16 22 23 14 47 l-10
29 -350 3 c-342 2 -351 2 -385 -19z"/>
<path d="M3380 1691 c-6 -12 -10 -97 -10 -206 0 -109 4 -194 10 -206 12 -22
59 -26 78 -7 17 17 17 409 0 426 -19 19 -66 15 -78 -7z"/>
<path d="M3580 1691 c-6 -12 -10 -97 -10 -206 0 -109 4 -194 10 -206 12 -22
59 -26 78 -7 8 8 12 55 12 145 0 73 2 133 5 133 2 0 30 -18 61 -40 159 -111
393 -111 559 0 l60 40 3 -132 c1 -76 7 -137 14 -145 16 -20 66 -16 78 6 15 29
13 404 -2 419 -25 25 -63 12 -132 -44 -38 -30 -96 -69 -130 -87 -57 -30 -68
-32 -166 -32 -98 0 -110 2 -170 31 -36 18 -96 57 -134 88 -75 61 -117 72 -136
37z"/>
<path d="M5530 1689 c-40 -25 -52 -39 -82 -94 -18 -33 -22 -61 -26 -166 -5
-143 2 -169 46 -169 46 0 52 15 52 129 0 125 11 173 47 201 24 19 39 20 263
20 224 0 239 -1 263 -20 36 -28 47 -76 47 -200 0 -115 6 -130 52 -130 40 0 48
25 48 147 0 121 -10 168 -47 225 -51 77 -56 78 -359 78 -257 0 -271 -1 -304
-21z"/>
</g>
</svg>
